<svg xmlns="http://www.w3.org/2000/svg" width="753.734" height="854.094" viewBox="0 0 753.734 854.094">
  <path id="Path_28" data-name="Path 28" d="M954.272,781.295c18.192-12.518,38.57-11.133,59.05-9.4,16.76,1.422,33.472,1.542,49.888-3,7.009-1.939,13.263-5.194,17.806-11.024,8.978-11.514,6.77-19.385-6.455-24.556-14.975-5.854-27.512-14.878-37.686-29.665,15.557-.619,29.715,2.051,43.532-1.854,12.442-3.517,13.082-4.674,4.037-13.528-25.8-25.267-55.5-45.825-83.483-68.459-8.844-7.153-18.147-13.46-17.328-27.076.317-5.215-4.7-8.64-8.4-12.011a321.274,321.274,0,0,0-41.493-32.465c-5.865-3.8-7.494-7.793-6.4-14.412,2.684-16.321,4.779-32.74,7.337-50.72-19.075,9.575-30.732,25-45.652,40.815,1.476-11.5,2.742-20.27,3.7-29.076,3.105-28.43-6.616-50.812-31.233-66.266-13.916-8.735-29.012-14.629-44.526-19.739-4.49-1.48-9.739-1.663-14.746-6.578,28.429.272,54.936,1.619,80.045,12.021,21.69,8.987,36.206,23.78,37.393,49.789,14.568-6.423,28.542-12.576,42.516-18.733,6.513.109,7.017.3,6.541,6.361-.624,7.945-2.933,15.616-4.654,23.382-3.078,13.9-5.524,27.923-8.007,41.941-1.561,8.82.827,15.609,8.331,20.627,10.13,6.769,18.7,15.456,28.185,23.021,7.4,5.905,13.2,13.124,15.746,22.195,2.779,9.909,9.12,16.386,16.906,22.553,26.552,21.039,54.519,40.4,78.13,64.986,4.657,4.847,9.076,9.837,12.428,15.711,4.25,7.442,5.45,15.208.716,22.624-4.393,6.875-4.614,13.77-3.626,21.573,2.394,18.978-3.775,35.566-16.413,49.659-3.932,4.385-5.636,8.534-4.783,14.634,4.7,33.644-8.037,60.873-35.686,78.7-16.146,10.412-25.824,19.732-18.327,39.4,1.432,3.759-.589,8.282,2.3,13.106,6.075-5.616,10.213-12.317,14.745-18.6,62.687-86.937,97.991-184.292,109.369-290.467a615.442,615.442,0,0,0,.637-124.01c-.643-6.786-3.736-9.544-9.937-10.554-10.744-1.745-21.578-2.77-32.351-4.293-50.768-7.184-100.321-19-147.912-38.38-4.562-1.861-9.776-2.844-12.583-7.664-39.678-18.79-78.514-39.056-113.832-65.408-3.27-2.438-5.527-2.329-8.78-.006-21.43,15.316-45.036,26.569-70.732,36.43,26.96,12.106,47.479,29.291,59.674,55.51-25.8-15.807-53.727-23.637-83.325-27.594-21.4-2.86-41.6.514-61.895,6.048-46.992,12.81-90.059,33.206-126.962,65.54-3.732,3.269-7.255,6.78-13.474,12.613,24.3-5.935,45.407-6.551,67.113-2.805-62.36,27.559-109.876,69.363-134.966,136.136-4.473-10.331-3.977-19.446-4.837-28.042-5.989-59.9-3.309-119.612,4.528-179.206,1.109-8.436,5.429-9.185,12.432-9.528,88.2-4.341,173.21-21.77,252.466-62.391,33.992-17.422,65.929-38.019,95.171-62.605,6.269-5.272,10.19-6.915,17.678-.718C938.172,377,1037.837,415.263,1148.2,427.087c18.308,1.963,36.679,3.725,55.067,4.395,7.639.279,8.871,3.909,9.64,9.743,30.113,228.62-30,427.466-195.69,591.156-48.829,48.24-104.608,87.331-164.413,120.846-6.733,3.772-11.749,3.52-18.274-.194-35.671-20.31-70.078-42.5-102.607-67.558-3.248-2.5-7.075-4.582-8.208-9.129-11.572-46.529-38.369-84.964-65.587-123.156-16.709-23.444-33.543-46.8-51.646-72.041-3.912,29.763-1.9,57.574,4.653,86.344-61.078-44.724-104.482-193.972-47.591-290.947,4.391,3.531,3.667,8.983,4.819,13.511,17.756,69.7,53.313,129.5,101.415,182.227,16.933,18.558,34.528,36.526,52.179,54.414,17.029,17.259,33.829,34.665,48.255,56.659,5.871-22.94,2.407-44.145,1.275-65.636,18.8,19.647,27.651,43.645,32.292,69.718,4.609,25.9,2.509,51.472-4.018,77.66,52.329-32.9,93.039-114.583,82.848-166.453,8.81,6.391,12.766,15.007,16.531,23.531,15.454,34.958,14.664,71.613,11.022,108.563-.548,5.551-4.474,12.844.19,16.273,3.728,2.741,10.191-1.885,15-4.225,46.334-22.552,79.228-56.132,85.211-109.583,4.136-36.947-11.422-67.942-34.658-99.287,5.567,41.632,8.956,79.868-13.188,118.1-1.772-13.854-2.538-24.855-4.66-35.59-8.252-41.754-34.25-71.075-68.517-93.556-23.729-15.569-48.792-29.093-73.076-43.832-11.813-7.171-22.794-15.422-29.13-30.392,40.825,10.752,79.524,6.619,119.016-4.681-32.256-23.6-70.435-40.009-73.806-89.359,32.977,45.833,76.735,58.238,127.05,53.677,12.416-1.125,24.052-5.51,25.757-21.062,9.735,13.909,8.816,23.059-4.467,33.141-10.959,8.324-22.695,15.623-34.091,23.375-2.094,4.7,1.29,2.929,3.294,2.79,3.69,1.115,8.21-7.134,11.249.931,2.309,6.133-3.735,6.161-6.514,8.467-2.5,2.072-5.286,3.794-7.946,5.671-2.258,4.517-6.942,5.895-10.681,8.276-1.125,1.062-1.37-1.221-.663.255.632,1.33,1.068-.755,1.878-.514,4.269-3.449,9.567-4.173,14.477-5.854,1.8-.888,3.667-1.674,5.4-2.687,5-2.925,11.446-4.776,14.045.851,2.544,5.507-5.46,5.477-8.572,8.041-4.124,3.392-8.97,5.9-13.5,8.793-1.228,2.793-2.956,5.088-4.874,5.514C946.6,782.662,950.908,783.459,954.272,781.295Z" transform="translate(-466.645 -301.845)" fill="#e3a956"/>
</svg>
