<svg xmlns="http://www.w3.org/2000/svg" width="146.254" height="146.254" viewBox="0 0 146.254 146.254">
  <g id="Group_14" data-name="Group 14" transform="translate(-379.027 -220.396)">
    <path id="Path_7" data-name="Path 7" d="M452.154,366.65a73.127,73.127,0,1,1,73.127-73.127A73.21,73.21,0,0,1,452.154,366.65Zm0-144.065a70.938,70.938,0,1,0,70.938,70.938A71.019,71.019,0,0,0,452.154,222.585Z" fill="#e3a956"/>
    <path id="Path_8" data-name="Path 8" d="M482.944,379.759a55.447,55.447,0,1,1,55.447-55.447A55.51,55.51,0,0,1,482.944,379.759Zm0-108.706A53.259,53.259,0,1,0,536.2,324.312,53.319,53.319,0,0,0,482.944,271.054Z" transform="translate(-30.79 -30.789)" fill="#e3a956"/>
    <g id="Group_2" data-name="Group 2" transform="translate(396.668 226.942)">
      <g id="Group_1" data-name="Group 1" transform="translate(0 0)">
        <path id="Path_9" data-name="Path 9" d="M427.389,316.94l.316-.432c.208-.284.341-.47.4-.56s.276-.425.664-1.034l.044-.012.177.12.005.045c-.107.166-.185.3-.236.392a.549.549,0,0,0-.079.229.3.3,0,0,0,.128.2,3.653,3.653,0,0,0,.384.291l.808.562,1.637,1.117.692.467a5.686,5.686,0,0,0,.531.331.4.4,0,0,0,.19.055.318.318,0,0,0,.153-.085,3.34,3.34,0,0,0,.361-.442l.041-.014.177.121.009.047q-.012.018-.446.608-.179.246-.275.388-.075.109-.661,1.03l-.048.009-.177-.12v-.043a4.41,4.41,0,0,0,.264-.463.385.385,0,0,0,.045-.184.339.339,0,0,0-.1-.158,3.911,3.911,0,0,0-.47-.36l-.743-.512-1.637-1.117-.694-.463q-.405-.271-.533-.335a.391.391,0,0,0-.189-.057.318.318,0,0,0-.151.086,3.639,3.639,0,0,0-.36.444l-.044.011-.177-.12Z" transform="translate(-427.389 -286.976)" fill="#cdae55"/>
        <path id="Path_10" data-name="Path 10" d="M439.472,304.674l-.054,0-.15-.128V304.5a2.816,2.816,0,0,0,.247-.337.316.316,0,0,0,.065-.209.4.4,0,0,0-.108-.17q-.092-.1-.438-.411t-.5-.443l-2.637-2.238a.533.533,0,0,0-.3-.148.343.343,0,0,0-.241.079,2.848,2.848,0,0,0-.326.335l-.048,0-.154-.13-.007-.051q.4-.436.517-.576c.186-.22.335-.4.444-.556l2.235.106,3.219.1q.584.019,1.141,0l-2.526-2.144q-.118-.1-.511-.414t-.51-.385a.306.306,0,0,0-.187-.06.409.409,0,0,0-.184.108,3.025,3.025,0,0,0-.28.287l-.049,0-.15-.128-.007-.051q.241-.25.656-.74.38-.448.535-.664l.054,0,.15.128,0,.049a2.84,2.84,0,0,0-.258.353.274.274,0,0,0-.054.206.473.473,0,0,0,.109.163c.056.061.2.2.431.4s.4.357.5.446l1.551,1.316.9.758.9.738a6.807,6.807,0,0,0-.616.448h-.471l-1.439-.026-4.642-.133,2.5,2.124q.15.128.545.443a5.709,5.709,0,0,0,.49.369.349.349,0,0,0,.148.053.322.322,0,0,0,.152-.064,2.079,2.079,0,0,0,.333-.332l.048,0,.154.131,0,.048a6.157,6.157,0,0,0-.488.529Q439.76,304.29,439.472,304.674Z" transform="translate(-432.111 -274.751)" fill="#cdae55"/>
        <path id="Path_11" data-name="Path 11" d="M451.386,285.512l.005-.045q.574-.469.774-.65l1.461-1.372a5.115,5.115,0,0,1,1.15-.82,2.414,2.414,0,0,1,1.1-.238,2.65,2.65,0,0,1,1.1.252,2.87,2.87,0,0,1,.913.684,3.4,3.4,0,0,1,.615.984,3.323,3.323,0,0,1,.253,1.135,3.128,3.128,0,0,1-.144,1.1,3.03,3.03,0,0,1-.46.907,5.087,5.087,0,0,1-.661.718q-.248.224-.952.823-.232.2-.305.263c-.146.131-.316.3-.508.5l-.049,0-.094-.105,0-.054a2.262,2.262,0,0,0,.108-.313,3.378,3.378,0,0,0-.457-.6q-.462-.549-.715-.829l-1.051-1.167-.653-.719q-.212-.235-.352-.378a1.562,1.562,0,0,0-.213-.191.316.316,0,0,0-.116-.056.206.206,0,0,0-.105.017,1,1,0,0,0-.185.112l-.259.2h-.045ZM456.3,288.6a5.314,5.314,0,0,0,.8-.609,3.271,3.271,0,0,0,.962-1.315,2.075,2.075,0,0,0,0-1.332,3.565,3.565,0,0,0-.769-1.3,2.592,2.592,0,0,0-1.738-.964,2.729,2.729,0,0,0-1.961.867,6.922,6.922,0,0,0-.763.8q.444.544,1.034,1.2l.9,1,.849.929Q455.866,288.16,456.3,288.6Z" transform="translate(-442.633 -266.321)" fill="#cdae55"/>
        <path id="Path_12" data-name="Path 12" d="M469.44,272.832l.441-.3q.434-.3.566-.394t.971-.754l.045,0,.127.172-.009.045c-.155.121-.273.218-.352.29a.548.548,0,0,0-.151.189.3.3,0,0,0,.053.235,3.718,3.718,0,0,0,.266.4l.575.8,1.172,1.6.5.67a5.883,5.883,0,0,0,.39.489.4.4,0,0,0,.162.115.323.323,0,0,0,.173-.028,3.393,3.393,0,0,0,.488-.3h.043l.126.173-.007.048-.623.425q-.251.173-.388.274-.107.079-.967.751l-.048-.008-.127-.173.013-.041a4.47,4.47,0,0,0,.4-.348.388.388,0,0,0,.1-.158.326.326,0,0,0-.043-.183,3.89,3.89,0,0,0-.323-.5l-.531-.731-1.172-1.6-.5-.669q-.292-.39-.391-.494a.382.382,0,0,0-.159-.116.3.3,0,0,0-.172.03,3.685,3.685,0,0,0-.487.3l-.045,0-.127-.173Z" transform="translate(-454.095 -259.331)" fill="#cdae55"/>
        <path id="Path_13" data-name="Path 13" d="M487.579,269.929l-.051-.009-.112-.192.016-.049a1.85,1.85,0,0,0,.331-.232.345.345,0,0,0,.082-.177,3.481,3.481,0,0,0-.031-.615l-.106-1.069-.332-2.863q-.108-.835-.22-1.668l.24-.141,3.752,2.781.5.371c.144.1.3.215.481.333a1.649,1.649,0,0,0,.337.194.366.366,0,0,0,.154,0,1.411,1.411,0,0,0,.321-.151l.047.012.113.192-.012.047q-.41.2-.724.381-.6.379-1.206.753l-.047-.012-.113-.192.012-.047a3.449,3.449,0,0,0,.5-.338.142.142,0,0,0,.029-.188.739.739,0,0,0-.178-.184l-1.114-.859-2.138,1.254.153,1.181a1.3,1.3,0,0,0,.112.436.167.167,0,0,0,.18.078,1.957,1.957,0,0,0,.53-.247l.051.01.112.191-.012.047q-.494.251-.852.461Q487.975,269.657,487.579,269.929Zm.467-3.059,1.868-1.1-2.233-1.682Z" transform="translate(-465.355 -253.951)" fill="#cdae55"/>
        <path id="Path_14" data-name="Path 14" d="M503.37,256.973l-.05-.021-.076-.182.022-.046a2.82,2.82,0,0,0,.374-.188c.09-.055.141-.108.153-.156a.4.4,0,0,0-.018-.2q-.037-.129-.2-.565t-.242-.622L502,251.8a.531.531,0,0,0-.2-.268.348.348,0,0,0-.25-.04,2.881,2.881,0,0,0-.443.149l-.045-.018-.077-.186.017-.049q.553-.206.723-.277.4-.166.648-.292l1.941,1.113,2.819,1.555q.512.284,1.017.519l-1.27-3.06q-.059-.142-.266-.6t-.278-.575a.31.31,0,0,0-.139-.139.418.418,0,0,0-.213.012,2.979,2.979,0,0,0-.38.128l-.044-.019-.076-.182.017-.049q.329-.113.921-.359.542-.225.778-.347l.051.02.076.182-.019.045a2.814,2.814,0,0,0-.391.2q-.132.085-.143.159a.486.486,0,0,0,.023.194c.023.081.088.266.2.557s.191.5.244.627l.78,1.878.456,1.086.461,1.065a6.919,6.919,0,0,0-.753.118l-.418-.216-1.269-.678-4.071-2.236,1.259,3.032q.076.182.283.643a5.593,5.593,0,0,0,.268.551.35.35,0,0,0,.108.115.325.325,0,0,0,.165.012,2.083,2.083,0,0,0,.448-.144l.045.019.077.186-.018.044a6.074,6.074,0,0,0-.676.248Q503.8,256.761,503.37,256.973Z" transform="translate(-474.144 -244.993)" fill="#cdae55"/>
        <path id="Path_15" data-name="Path 15" d="M548.521,247.148l-.028-.2.018-.054a4.4,4.4,0,0,1,.982-.818,3.625,3.625,0,0,1-1.827-.123,2.64,2.64,0,0,1-1.2-.973,3.617,3.617,0,0,1-.614-1.59,3.016,3.016,0,0,1,.589-2.378,3.279,3.279,0,0,1,2.225-1.21,3.812,3.812,0,0,1,1.7.108,2.553,2.553,0,0,1,1.254.85,3.065,3.065,0,0,1,.618,1.52,4.179,4.179,0,0,1,.031.835,3.219,3.219,0,0,1-.206.933,2.908,2.908,0,0,1-.525.888,3.406,3.406,0,0,1-.851.7,3.584,3.584,0,0,1-1.1.425,4.375,4.375,0,0,1,.977.151,11.53,11.53,0,0,0,1.151.235,2.443,2.443,0,0,0,.639.011,1.478,1.478,0,0,0,.409-.136l.047.024.02.144-.011.044a1.32,1.32,0,0,1-.17.141,2.429,2.429,0,0,0-.436.4,2.726,2.726,0,0,1-.31.009,3.461,3.461,0,0,1-.485-.036q-.247-.037-.777-.138a6.406,6.406,0,0,0-1.379-.18.6.6,0,0,0-.216.077,2.381,2.381,0,0,0-.288.208l-.19.148Zm-1.816-4.1a4.184,4.184,0,0,0,.326,1.088,2.966,2.966,0,0,0,.645.95,2.181,2.181,0,0,0,.858.524,2.465,2.465,0,0,0,2.146-.4,1.91,1.91,0,0,0,.646-1.045,3.649,3.649,0,0,0,.065-1.459,3.814,3.814,0,0,0-.525-1.5,2.06,2.06,0,0,0-1.012-.881,2.552,2.552,0,0,0-1.295-.136,2.12,2.12,0,0,0-1.531.875A2.746,2.746,0,0,0,546.7,243.053Z" transform="translate(-502.617 -239.243)" fill="#cdae55"/>
        <path id="Path_16" data-name="Path 16" d="M568.613,238.431l.034-.03q1.061.025,1.224.023.146,0,1.228-.045l.035.029,0,.214-.034.03q-.3.011-.456.03a.559.559,0,0,0-.233.066.305.305,0,0,0-.094.222,3.675,3.675,0,0,0-.019.481v.985l.012,1.361q.007.672.037.987a1.743,1.743,0,0,0,.124.53.986.986,0,0,0,.284.37,1.459,1.459,0,0,0,.542.249,2.927,2.927,0,0,0,.8.091,2.874,2.874,0,0,0,.879-.138,1.336,1.336,0,0,0,.619-.384,1.3,1.3,0,0,0,.274-.655,7.308,7.308,0,0,0,.057-1.124l-.012-1.318q0-.334-.019-.918a2.935,2.935,0,0,0-.057-.672.27.27,0,0,0-.151-.132,2.366,2.366,0,0,0-.606-.048l-.034-.034,0-.2.034-.039q.634.028,1.015.025.326,0,1.01-.043l.038.034,0,.205-.038.035a4.007,4.007,0,0,0-.524.036.348.348,0,0,0-.171.073.288.288,0,0,0-.072.146,3.98,3.98,0,0,0-.027.565l0,.963.011,1.3a9.977,9.977,0,0,1-.048,1.229,1.613,1.613,0,0,1-.261.74,1.965,1.965,0,0,1-.488.488,2.165,2.165,0,0,1-.727.306,4,4,0,0,1-.924.113,3.818,3.818,0,0,1-1.06-.123,2.012,2.012,0,0,1-.729-.344,1.375,1.375,0,0,1-.385-.457,1.729,1.729,0,0,1-.155-.568q-.038-.327-.043-1l-.015-1.644-.016-.835c-.006-.325-.016-.535-.029-.628a.4.4,0,0,0-.062-.188.32.32,0,0,0-.157-.076,3.669,3.669,0,0,0-.57-.041l-.035-.03Z" transform="translate(-517.099 -238.343)" fill="#cdae55"/>
        <path id="Path_17" data-name="Path 17" d="M591.541,238.87l.531.066q.523.066.685.08.144.013,1.226.078l.032.033-.02.213-.037.026q-.3-.018-.457-.016a.551.551,0,0,0-.238.043.3.3,0,0,0-.116.211,3.738,3.738,0,0,0-.068.477l-.1.98-.181,1.973-.073.832a5.945,5.945,0,0,0-.031.625.4.4,0,0,0,.045.193.32.32,0,0,0,.149.093,3.374,3.374,0,0,0,.563.1l.031.028-.02.213-.037.031-.748-.095c-.2-.024-.359-.042-.473-.052q-.132-.011-1.222-.077l-.031-.038.019-.213.036-.022a4.427,4.427,0,0,0,.533.005.384.384,0,0,0,.183-.05.332.332,0,0,0,.089-.166,3.964,3.964,0,0,0,.086-.585l.087-.9.181-1.973.067-.832q.04-.486.034-.629a.4.4,0,0,0-.042-.193.314.314,0,0,0-.148-.091,3.708,3.708,0,0,0-.563-.1l-.032-.033.019-.213Z" transform="translate(-531.292 -238.678)" fill="#cdae55"/>
        <path id="Path_18" data-name="Path 18" d="M602.158,246.237l.038-.2,1.248-1.065,2.979-2.645q.677-.6.923-.864l-.173-.032-.677-.131q-.892-.166-1.442-.24t-.73-.078a.374.374,0,0,0-.23.042.625.625,0,0,0-.112.238l-.163.545-.045.031-.2-.037-.031-.045q.08-.315.116-.5.1-.514.131-.816l.045-.031q1.5.314,2.093.425.993.185,2.615.453l.031.046-.04.214q-.566.461-.794.662l-4.347,3.862,1.7.347q.509.1,1.031.166c.348.048.579.073.691.077a.513.513,0,0,0,.239-.032.261.261,0,0,0,.1-.081,2.076,2.076,0,0,0,.121-.275l.2-.547.044-.027.2.037.028.04q-.08.264-.332,1.454l-.044.027q-1.769-.365-2.8-.556-.719-.135-2.384-.41Z" transform="translate(-538.408 -239.651)" fill="#cdae55"/>
        <path id="Path_19" data-name="Path 19" d="M632.98,247.365l.042-.016q.984.4,1.136.458.136.05,1.164.4l.022.039-.074.2-.043.016c-.186-.063-.332-.108-.437-.135a.559.559,0,0,0-.241-.021c-.057.012-.112.07-.167.173a3.932,3.932,0,0,0-.19.443l-.35.921-.657,1.774q-.247.666-.337.935l-.237.7.819.3q.979.363,1.231.429a1.774,1.774,0,0,0,.51.057,3.539,3.539,0,0,0,.3-.415c.144-.22.224-.348.241-.385l.048-.019.2.073.016.043a6.522,6.522,0,0,0-.3.6q-.2.45-.31.734l-.044.02q-.754-.307-1.994-.766l-1.169-.442q-.4-.149-.831-.271l-.02-.044.049-.132L631.4,253a1.84,1.84,0,0,0,.331-.055,2.759,2.759,0,0,0,.242-.5q.208-.48.463-1.171l.638-1.722.282-.785q.165-.459.2-.6a.393.393,0,0,0,.009-.2.313.313,0,0,0-.119-.126,3.734,3.734,0,0,0-.518-.242l-.022-.04Z" transform="translate(-556.924 -244.064)" fill="#cdae55"/>
        <path id="Path_20" data-name="Path 20" d="M650.493,254.714l.044-.011q1.3.68,1.668.864,1.256.629,2.247,1.1l.006.036a7.281,7.281,0,0,0-.719,1.082l-.039.019-.187-.093-.019-.048c.014-.022.025-.042.035-.059a4.249,4.249,0,0,0,.261-.645,2.32,2.32,0,0,0-.6-.474q-.41-.246-.625-.354-.3-.151-.794-.345l-.323.6-.362.7-.4.771q.4.23.75.4t.6.272a1.091,1.091,0,0,0,.3.091.177.177,0,0,0,.109-.065,1.664,1.664,0,0,0,.162-.232l.134-.23.046-.015.176.088.016.046q-.217.414-.439.829l-.412.871-.046.015-.177-.088-.015-.046.088-.243q.1-.285.11-.344a.188.188,0,0,0-.026-.125.862.862,0,0,0-.254-.2q-.219-.138-.62-.339-.222-.111-.687-.32-.18.312-.556,1.062-.4.8-.573,1.192l.7.352q.93.466,1.175.56a1.7,1.7,0,0,0,.5.111,4.576,4.576,0,0,0,.318-.351c.158-.186.256-.3.29-.355l.052-.008.183.092.017.042a5.929,5.929,0,0,0-.354.541q-.238.393-.384.684l-.042.017q-.72-.389-1.9-.981l-1.037-.529q-.364-.182-.773-.349l-.015-.046.063-.126.05-.023a2.245,2.245,0,0,0,.33-.014,3.322,3.322,0,0,0,.39-.643q.341-.631.51-.967l.7-1.4.431-.871q.142-.283.224-.465a1.563,1.563,0,0,0,.1-.268.322.322,0,0,0,.009-.129.2.2,0,0,0-.054-.092.971.971,0,0,0-.171-.131l-.279-.169-.017-.042Z" transform="translate(-567.597 -248.735)" fill="#cdae55"/>
        <path id="Path_21" data-name="Path 21" d="M662.816,271.632l-.013-.05.123-.186.051-.007a1.827,1.827,0,0,0,.353.2.339.339,0,0,0,.195,0,3.451,3.451,0,0,0,.539-.3l.914-.565,2.428-1.554q.7-.462,1.4-.929l.232.154-.853,4.592-.113.613q-.046.263-.088.579a1.649,1.649,0,0,0-.027.388.369.369,0,0,0,.067.14,1.431,1.431,0,0,0,.277.221l.009.048-.123.186-.048.009q-.356-.282-.659-.484-.6-.375-1.206-.754l-.009-.047.123-.186.048-.009a3.436,3.436,0,0,0,.522.3.142.142,0,0,0,.181-.057.717.717,0,0,0,.088-.24l.283-1.378-2.065-1.37-.995.655a1.294,1.294,0,0,0-.343.291.168.168,0,0,0,.009.2,1.947,1.947,0,0,0,.454.368l.013.05-.123.185-.048.009q-.441-.334-.787-.563Q663.234,271.869,662.816,271.632Zm2.954-.922,1.8,1.2.532-2.745Z" transform="translate(-576.932 -257.332)" fill="#cdae55"/>
        <path id="Path_22" data-name="Path 22" d="M689.252,286.42l-.084.1-.046.027-.24-.044a.266.266,0,0,0-.116,0,1.4,1.4,0,0,0-.191.17q-.165.16-.382.409a7.57,7.57,0,0,0-.5.64l-.047.016a6.682,6.682,0,0,1-2.112-1.245,3.988,3.988,0,0,1-1.057-1.4,2.841,2.841,0,0,1-.216-1.6,3.063,3.063,0,0,1,.764-1.56,2.952,2.952,0,0,1,2.31-1.109,3.9,3.9,0,0,1,2.566,1.079,5.444,5.444,0,0,1,1.356,1.722l-.008.055a10.121,10.121,0,0,0-.926.788h-.046l-.148-.129,0-.049.283-.356a1.425,1.425,0,0,0,.151-.216.3.3,0,0,0,0-.136,2.07,2.07,0,0,0-.169-.409,3.221,3.221,0,0,0-.353-.569,3.615,3.615,0,0,0-.479-.5,2.876,2.876,0,0,0-1.259-.666,2.105,2.105,0,0,0-1.309.117,3.09,3.09,0,0,0-1.141.843,3.307,3.307,0,0,0-.715,1.321,2.5,2.5,0,0,0,.017,1.42,2.669,2.669,0,0,0,.83,1.23,3.96,3.96,0,0,0,.593.424,2.151,2.151,0,0,0,.59.25,2.466,2.466,0,0,0,.392-.391l.312-.358a1.208,1.208,0,0,0,.245-.346.286.286,0,0,0-.082-.228,5.128,5.128,0,0,0-.522-.512l0-.054.124-.142.054,0,.192.178q.492.458.812.736c.123.107.308.257.556.45Z" transform="translate(-590.543 -265.323)" fill="#cdae55"/>
        <path id="Path_23" data-name="Path 23" d="M703.43,293.069l.045.006q.677.818.785.94t.84.9v.046l-.16.142-.045-.006q-.2-.215-.321-.325a.554.554,0,0,0-.2-.132.3.3,0,0,0-.229.074,3.756,3.756,0,0,0-.376.3l-.743.646-1.02.9q-.5.444-.721.674a1.775,1.775,0,0,0-.318.441.978.978,0,0,0-.093.457,1.469,1.469,0,0,0,.166.573,2.975,2.975,0,0,0,.453.661,2.87,2.87,0,0,0,.681.572,1.332,1.332,0,0,0,.7.216,1.3,1.3,0,0,0,.674-.223,7.3,7.3,0,0,0,.886-.695l.987-.873q.25-.222.681-.617a2.9,2.9,0,0,0,.469-.484.266.266,0,0,0,0-.2,2.37,2.37,0,0,0-.361-.489l0-.048.151-.133h.051q.394.5.646.782.216.243.695.734v.051l-.154.136-.051-.006a4.022,4.022,0,0,0-.372-.372.345.345,0,0,0-.166-.081.29.29,0,0,0-.157.042,3.96,3.96,0,0,0-.445.351l-.73.628-.975.862a9.728,9.728,0,0,1-.96.769,1.613,1.613,0,0,1-.731.289,1.975,1.975,0,0,1-.688-.049,2.157,2.157,0,0,1-.708-.348,3.989,3.989,0,0,1-.691-.623,3.841,3.841,0,0,1-.6-.882,2.018,2.018,0,0,1-.218-.776,1.393,1.393,0,0,1,.092-.59,1.77,1.77,0,0,1,.328-.49q.223-.242.726-.688l1.231-1.089.619-.559q.363-.326.456-.434a.394.394,0,0,0,.1-.17.311.311,0,0,0-.046-.168,3.674,3.674,0,0,0-.342-.458v-.045Z" transform="translate(-600.626 -273.107)" fill="#cdae55"/>
        <path id="Path_24" data-name="Path 24" d="M716.674,311.686l.045.011q.811,1.223,1.045,1.562.8,1.155,1.44,2.043l-.012.034a7.318,7.318,0,0,0-1.151.6l-.043,0-.119-.173.007-.051c.023-.013.042-.024.058-.035a4.156,4.156,0,0,0,.54-.44,2.353,2.353,0,0,0-.3-.7q-.241-.413-.377-.611-.192-.278-.529-.685l-.574.375-.653.434-.723.482q.241.4.463.716t.4.529a1.094,1.094,0,0,0,.22.225.179.179,0,0,0,.127,0,1.611,1.611,0,0,0,.254-.126l.228-.136.048.009.111.162-.008.048q-.389.258-.784.515l-.781.564-.047-.008-.112-.163.009-.047.194-.17c.15-.135.237-.217.262-.249a.187.187,0,0,0,.038-.122.859.859,0,0,0-.125-.3q-.124-.226-.38-.6c-.094-.136-.244-.34-.448-.611q-.308.186-1,.663-.74.509-1.077.768l.447.649q.591.856.76,1.057a1.718,1.718,0,0,0,.384.339q.1-.025.447-.155t.425-.171l.049.018.117.17-.005.045a5.85,5.85,0,0,0-.571.3q-.4.23-.666.415l-.045,0q-.443-.688-1.194-1.777l-.654-.963q-.231-.335-.51-.678l.009-.047.116-.081.054,0a2.269,2.269,0,0,0,.3.147,3.333,3.333,0,0,0,.651-.375q.6-.388.914-.6l1.293-.892.8-.555q.261-.18.42-.3a1.574,1.574,0,0,0,.217-.187.326.326,0,0,0,.071-.108.213.213,0,0,0,0-.107.971.971,0,0,0-.087-.2l-.163-.282.005-.045Z" transform="translate(-608.125 -284.933)" fill="#cdae55"/>
      </g>
    </g>
    <g id="Group_3" data-name="Group 3" transform="translate(445.766 354.134)">
      <path id="Path_25" data-name="Path 25" d="M565.909,593.729l-1.612-1.692-2.307.369,1.111-2.056-1.064-2.081,2.3.421,1.65-1.655.31,2.316,2.083,1.058-2.107,1.01Z" transform="translate(-561.99 -587.037)" fill="#e3a956"/>
    </g>
    <g id="Group_4" data-name="Group 4" transform="translate(390.803 267.327)">
      <path id="Path_26" data-name="Path 26" d="M413.24,354.676l1.425-1.35,1.92.408-.844-1.772.981-1.7-1.946.255-1.314-1.459-.359,1.93-1.793.8,1.725.938Z" transform="translate(-411.31 -349.058)" fill="#e3a956"/>
    </g>
    <g id="Group_5" data-name="Group 5" transform="translate(506.586 267.776)">
      <path id="Path_27" data-name="Path 27" d="M731.368,350.289l-.725,1.824-1.914.437,1.511,1.254-.176,1.955,1.659-1.049,1.8.772-.485-1.9,1.292-1.478-1.959-.126Z" transform="translate(-728.729 -350.289)" fill="#e3a956"/>
    </g>
    <g id="Group_6" data-name="Group 6" transform="translate(410.987 250.106)">
      <path id="Path_28" data-name="Path 28" d="M518.936,353.259c1.951-1.342,4.136-1.194,6.332-1.008a15.069,15.069,0,0,0,5.35-.322,3.5,3.5,0,0,0,1.91-1.182c.963-1.235.726-2.079-.692-2.633a8.427,8.427,0,0,1-4.041-3.181c1.668-.066,3.187.22,4.668-.2,1.334-.377,1.4-.5.433-1.451-2.767-2.709-5.952-4.914-8.952-7.341-.948-.767-1.946-1.443-1.858-2.9.034-.559-.5-.927-.9-1.288a34.432,34.432,0,0,0-4.449-3.481,1.336,1.336,0,0,1-.687-1.546c.288-1.75.513-3.511.787-5.439-2.046,1.027-3.3,2.681-4.9,4.377.158-1.233.294-2.174.4-3.118a6.882,6.882,0,0,0-3.349-7.106,21.479,21.479,0,0,0-4.775-2.117,3.219,3.219,0,0,1-1.581-.705,22.487,22.487,0,0,1,8.584,1.289c2.326.964,3.883,2.55,4.01,5.339l4.559-2.009c.7.012.753.032.7.682a18.284,18.284,0,0,1-.5,2.507c-.33,1.49-.592,2.994-.859,4.5a2,2,0,0,0,.893,2.212c1.086.726,2.005,1.657,3.022,2.469a4.685,4.685,0,0,1,1.688,2.38,4.669,4.669,0,0,0,1.813,2.418,80.136,80.136,0,0,1,8.378,6.969,8.681,8.681,0,0,1,1.333,1.685,2.22,2.22,0,0,1,.077,2.426,3.244,3.244,0,0,0-.389,2.313,6.5,6.5,0,0,1-1.76,5.325,1.769,1.769,0,0,0-.513,1.569,8.138,8.138,0,0,1-3.827,8.439c-1.732,1.117-2.769,2.116-1.965,4.225.154.4-.063.888.247,1.405a12.417,12.417,0,0,0,1.581-1.995,63.942,63.942,0,0,0,11.728-31.148,65.991,65.991,0,0,0,.068-13.3,1.1,1.1,0,0,0-1.066-1.132c-1.152-.187-2.314-.3-3.469-.46a66.488,66.488,0,0,1-15.861-4.116c-.489-.2-1.048-.3-1.349-.822a70.76,70.76,0,0,1-12.207-7.014.674.674,0,0,0-.941,0,33.389,33.389,0,0,1-7.585,3.907,12.053,12.053,0,0,1,6.4,5.953,22.38,22.38,0,0,0-8.935-2.959,16.506,16.506,0,0,0-6.637.649,33.646,33.646,0,0,0-13.615,7.028c-.4.351-.778.727-1.445,1.353a17.037,17.037,0,0,1,7.2-.3c-6.687,2.955-11.783,7.438-14.473,14.6a8.9,8.9,0,0,1-.519-3.007,83.332,83.332,0,0,1,.486-19.217c.119-.9.582-.985,1.333-1.022,9.458-.465,18.574-2.335,27.073-6.691a54.146,54.146,0,0,0,10.206-6.714c.672-.565,1.093-.742,1.9-.077a58.3,58.3,0,0,0,31.744,13c1.963.21,3.933.4,5.905.471.819.03.951.419,1.034,1.045,3.229,24.516-3.218,45.84-20.985,63.393a81.4,81.4,0,0,1-17.631,12.959,1.745,1.745,0,0,1-1.96-.021,94.855,94.855,0,0,1-11-7.245c-.348-.268-.759-.491-.88-.979-1.241-4.99-4.115-9.111-7.033-13.207-1.792-2.514-3.6-5.018-5.538-7.725a25.654,25.654,0,0,0,.5,9.259c-6.55-4.8-11.2-20.8-5.1-31.2.471.379.393.963.517,1.449a45.411,45.411,0,0,0,10.875,19.541c1.816,1.99,3.7,3.917,5.6,5.835a39.283,39.283,0,0,1,5.175,6.076c.63-2.46.258-4.734.137-7.039a13.88,13.88,0,0,1,3.463,7.476,19.684,19.684,0,0,1-.431,8.328c5.612-3.528,9.977-12.287,8.884-17.85a5.624,5.624,0,0,1,1.773,2.523c1.657,3.749,1.573,7.679,1.182,11.642-.059.6-.48,1.377.02,1.745.4.294,1.093-.2,1.608-.453,4.969-2.418,8.5-6.019,9.138-11.751.444-3.962-1.225-7.286-3.717-10.647.6,4.464.96,8.565-1.414,12.665-.19-1.486-.272-2.665-.5-3.817-.885-4.478-3.673-7.622-7.347-10.033-2.545-1.67-5.232-3.12-7.836-4.7a6.956,6.956,0,0,1-3.124-3.259,23.4,23.4,0,0,0,12.763-.5c-3.459-2.531-7.553-4.29-7.915-9.582,3.536,4.915,8.229,6.245,13.624,5.756,1.331-.121,2.579-.591,2.762-2.259,1.044,1.492.945,2.473-.479,3.554-1.175.893-2.434,1.675-3.656,2.507-.225.5.138.314.353.3.4.12.88-.765,1.206.1.248.658-.4.661-.7.908-.268.222-.567.407-.852.608-.242.484-.745.632-1.145.887-.121.114-.147-.131-.071.027.068.143.115-.081.2-.055a4.675,4.675,0,0,1,1.552-.628c.193-.1.393-.18.579-.288.536-.314,1.227-.512,1.506.091s-.585.587-.919.862a14.437,14.437,0,0,1-1.448.943c-.132.3-.317.546-.523.591C518.113,353.406,518.575,353.491,518.936,353.259Z" transform="translate(-466.645 -301.845)" fill="#e3a956"/>
      <path id="Path_29" data-name="Path 29" d="M529.346,383.511a9.8,9.8,0,0,1-8.865-9.541c.028-3.255,1.524-4.843,4.773-5,1-.049,1.293-.932,1.708-1.514.359-.506-.44-.875-.844-1.136a7.092,7.092,0,0,0-6.927-.441c.916.753.76,1.388.192,2.272-1.48,2.3-1.355,4.851-.711,7.405.094.375.477.84.1,1.111-.426.306-.806-.189-1.168-.422a10.546,10.546,0,0,1-2.005-2.152c-2.019,2.853-2.44,7.422-.931,9.873,1.007-2.59,1.323-3.132,2.493-4.234.257,1.186.428,2.364.773,3.489a15.531,15.531,0,0,0,4.465,6.46c1.8,1.749,3.742,3.362,5.387,5.275a12.988,12.988,0,0,1,3.348,10.268A24,24,0,0,0,519.7,393.962c.436,1.966,1.275,3.752,1.235,6.032-3.272-4.112-7.274-7.208-9.871-11.5a16.346,16.346,0,0,1-.652-16.86,20.636,20.636,0,0,0-5.273,3.717,20.1,20.1,0,0,1,6.5-9.159,16.662,16.662,0,0,0-4.732,1.993c.019-1.661,3.574-5.206,7.1-6.936a17.907,17.907,0,0,1,16.058-.3,15.408,15.408,0,0,0-7.06,1.476,15.2,15.2,0,0,1,9.154,3.618c-3.929,2.264-6.963,5.1-6.733,9.938a8.36,8.36,0,0,0,5,7.291C530.191,383.912,529.739,383.579,529.346,383.511Z" transform="translate(-491.101 -338.273)" fill="#e3a956"/>
      <path id="Path_30" data-name="Path 30" d="M598.963,391.878a10.019,10.019,0,0,0-5.3-1.453c-1.746-.032-3.137-1.4-4.823-2.189,1.633-1.178,3.353-1.166,5.191-1.034-.39-1.375-2.123-1.5-2.5-2.945,2.484.825,4.939,1.492,6.488,4.047-1.117-.054-1.694-1.018-2.637-1.047.36,1.319.36,1.319,1.635,2.411l2.241,1.919C599.322,391.846,599.258,391.981,598.963,391.878Z" transform="translate(-544.267 -354.196)" fill="#e3a956"/>
    </g>
    <g id="Group_7" data-name="Group 7" transform="translate(385.654 280.608)">
      <path id="Path_31" data-name="Path 31" d="M398.559,385.467l1.2.115-.031.322,2.936.282.031-.322,1.2.116-.32,3.321-.936.777-1.609-.155-.771-.941.147-1.527-.824-.079-.031.322-1.2-.115Zm-.062,2,.945.091.031-.322,1.075.1-.156,1.618.7.841,1.517.146.853-.707.3-3.137-.953-.092-.03.314-3.187-.306.03-.314-.946-.091Zm.33-1.671.61.059-.03.314,3.523.339.03-.314.61.059-.276,2.876-.769.638-1.319-.127-.641-.774.161-1.672-1.4-.135-.031.322-.61-.059Zm2.4,2.615.3.37.839.081.36-.3.112-1.166-1.5-.144Zm.264-.981,1.167.112-.087.9-.293.243-.625-.06-.249-.295Zm.045.887.152.185.572.055.184-.152.071-.744-.907-.088Z" transform="translate(-397.932 -385.467)" fill="#cdae55"/>
      <path id="Path_32" data-name="Path 32" d="M397.432,395.988l1.2.057-.015.323,2.9,1.125.011-.239,1.209.058-.136,2.863-1.209-.057.013-.27-2.993.845-.015.316-1.2-.057.1-2.062,1.2.057-.009.185.256-.072.049-1.032-.248-.1-.009.185-1.2-.057Zm.038,1.938.949.045.009-.2.491.147-.06,1.262-.5.092.009-.2-.949-.045-.086,1.809.949.045.015-.308,3.247-.879-.014.3.949.045.124-2.6-.949-.045-.013.262-3.149-1.183.014-.3-.949-.045Zm.246-1.624.612.029-.011.231,3.479,1.346.016-.339.612.029-.108,2.27-.612-.029.018-.377-3.591,1.009-.011.231-.612-.029.07-1.47.612.029-.014.293.847-.237.07-1.47-.821-.317-.014.293-.612-.029Zm1.759,2.853,1.772-.494-1.716-.676Zm.2-.9,1.048.382-1.079.273Zm.113.515.521-.153-.5-.2Z" transform="translate(-397.196 -392.15)" fill="#cdae55"/>
      <path id="Path_33" data-name="Path 33" d="M397.2,411.079l1.2-.014,0,.324,2.949-.035,0-.324,1.21-.014.025,2.126-1.21.014,0-.324-2.949.035.012.971.321,0,.015,1.217-1.524.018Zm.176,3.858,1.256-.015-.011-.956-.314,0-.015-1.24,3.21-.038,0,.331.95-.011-.022-1.864-.95.011,0,.323-3.2.038,0-.316-.95.011Zm.127-3.561.613-.007,0,.316,3.539-.042,0-.316.613-.007.018,1.533-.612.007,0-.324-3.539.042.018,1.556.322,0,.007.624-.935.011Z" transform="translate(-397.195 -401.697)" fill="#cdae55"/>
      <path id="Path_34" data-name="Path 34" d="M397.29,423.211l1.2-.1.026.323,2.94-.233-.026-.323,1.206-.1.137,1.721-1.97,1.416L402.97,427l.138,1.728-1.207.1-.026-.323-2.94.234.026.322-1.2.1-.169-2.12,1.2-.1.025.315,1.389-.111-2.024-1.014,1.838-1.329-1.39.111.026.322-1.2.1Zm.288,1.979.947-.075-.026-.323,1.932-.154-2.073,1.479,2.356,1.119-2.008.16-.026-.323-.947.076.148,1.866.947-.075-.026-.323,3.192-.254.026.322.947-.075-.124-1.567-2.224-1.106,2.021-1.451-.124-1.559-.947.075.025.315-3.192.254-.025-.315-.947.076Zm.034-1.7.611-.048.025.315,3.528-.28-.025-.315.611-.049.095,1.191-2.326,1.676,2.561,1.281.1,1.206-.611.048-.026-.33-3.528.28.027.33-.611.049-.122-1.536.611-.049.026.323,2.688-.214-2.553-1.273,2.32-1.661-2.688.214.026.323-.611.048Z" transform="translate(-397.255 -409.173)" fill="#cdae55"/>
      <path id="Path_35" data-name="Path 35" d="M398.848,441.909l1.188-.188.051.32,3.067.513-.037-.236,1.2-.189.448,2.831-1.2.189-.042-.266-2.759,1.435.049.312-1.188.188-.323-2.039,1.188-.188.029.182.236-.123-.162-1.02-.264-.052.029.183-1.188.188Zm.431,1.89.938-.148-.031-.2.511.044.2,1.248-.474.192-.031-.2-.939.148.283,1.788.938-.148-.048-.3,3-1.521.047.3.938-.148-.407-2.572-.938.148.041.259-3.324-.519-.047-.3-.939.148Zm-.089-1.64.605-.1.036.228,3.68.611-.053-.335.606-.1.355,2.245-.605.1-.059-.373-3.311,1.718.036.228-.606.1-.23-1.453.605-.1.046.289.782-.4-.23-1.454-.868-.143.046.289-.605.1Zm2.3,2.436,1.635-.844-1.818-.313Zm.009-.923,1.1.161-1,.486Zm.216.481.479-.256-.534-.094Z" transform="translate(-398.245 -421.201)" fill="#cdae55"/>
      <path id="Path_36" data-name="Path 36" d="M402.566,460.8l1.16-.318.085.312,2.844-.78-.086-.312,1.167-.32.462,1.687-1.978,2.084,1.2-.33-.086-.312,1.168-.32.562,2.051-1.168.32-.085-.312-2.844.779.085.312-1.16.318-.47-1.717,1.927-2.038-1.152.316.086.312-1.16.318Zm.646,1.892.924-.253-.086-.312,1.714-.469-2.2,2.313.419,1.531.924-.253-.085-.312,3.088-.846.086.313.916-.251-.493-1.8-.916.251.085.312-1.766.484,2.238-2.355-.411-1.5-.916.251.084.3-3.088.846-.084-.3-.924.253Zm-.278-1.681.591-.162.084.3,3.413-.935-.083-.3.591-.162.328,1.2-2.649,2.8,2.586-.709-.088-.32.591-.162.407,1.486-.591.162-.088-.32-3.413.935.088.32-.591.162-.34-1.241,2.6-2.735-2.527.693.086.312-.591.162Z" transform="translate(-400.607 -432.422)" fill="#cdae55"/>
      <path id="Path_37" data-name="Path 37" d="M408.247,475.724l3.427-1.245,1.1.518.81,2.231-.511,1.1-3.427,1.245-1.1-.518-.81-2.23Zm-.367,1.1.782,2.151.983.463,3.333-1.211.466-1.006-.776-2.136-.983-.463-3.347,1.216Zm.606-.867,3.153-1.146.9.425.713,1.962-.421.907-3.153,1.146-.9-.425-.713-1.962Zm.329,1.176.363,1,.423.2,2.7-.981.2-.434-.361-.992-.422-.2-2.707.984Zm.345-.306,2.52-.916.344.162.295.811-.16.345-2.519.916-.344-.162-.295-.811Zm-.024.337.268.739.217.1,2.455-.893.1-.217-.271-.746-.216-.1-2.448.89Z" transform="translate(-403.89 -442.01)" fill="#cdae55"/>
      <path id="Path_38" data-name="Path 38" d="M411.347,486.907l1.09-.507.136.293,2.674-1.245-.136-.293,1.1-.511.738,1.585-1.6,2.386,1.132-.527-.137-.293,1.1-.511.9,1.928-1.1.511-.137-.293-2.673,1.245.136.293-1.09.508-.751-1.614,1.559-2.332-1.083.5.136.293-1.09.507Zm.953,1.757.868-.4-.136-.293,1.611-.75-1.783,2.649.67,1.439.868-.4-.136-.294,2.9-1.351.136.293.861-.4-.787-1.69-.861.4.136.294-1.66.772,1.812-2.7-.657-1.411-.861.4.133.286-2.9,1.351-.133-.286-.868.4Zm-.556-1.611.556-.259.133.286,3.208-1.494-.133-.286.556-.259.523,1.125-2.144,3.2,2.431-1.132-.14-.3.556-.259.65,1.4-.556.259-.14-.3-3.208,1.493.14.3-.556.258-.543-1.166,2.108-3.132-2.375,1.106.136.293-.556.259Z" transform="translate(-406.185 -448.468)" fill="#cdae55"/>
      <path id="Path_39" data-name="Path 39" d="M422.862,506.12l.865-.553.8,1.246-.426.272-.049.251.415.649.237.058.445-.285.044-.229-.851-1.331.258-1.189,1.335-.855,1.188.265,1.279,2-.258,1.19-.891.57-.8-1.253.452-.289.051-.234-.432-.675-.229-.045-.458.293-.051.233.855,1.337-.258,1.189-1.31.838-1.188-.265-1.279-2Zm-.127,1.152,1.237,1.934,1.054.24,1.265-.809.221-1.047-.855-1.337.085-.365.51-.326.367.076.461.72-.081.372-.368.235.66,1.032.755-.483.228-1.051-1.246-1.947-1.049-.234-1.284.821-.228,1.051.851,1.331-.074.367-.49.314-.375-.089-.452-.707.08-.372.342-.219-.66-1.032-.729.466Zm.412-.977.5-.318.477.747-.3.19-.1.456.573.9.462.1.645-.412.108-.471-.839-1.311.214-.987,1.084-.694.976.217,1.121,1.753-.221.992-.51.326-.481-.753.31-.2.108-.471-.569-.889-.456-.1-.684.437-.1.457.847,1.324-.22.992-1.058.677-.972-.211-1.133-1.772Z" transform="translate(-413.336 -460.862)" fill="#cdae55"/>
      <path id="Path_40" data-name="Path 40" d="M428.5,516.166l.964-.718.193.26,2.366-1.761-.193-.259.971-.723,1.27,1.706-.971.723-.193-.26-2.366,1.761.193.259-.965.719Zm1.3,1.523.756-.562-.2-.266,2.574-1.916.2.266.762-.568-1.113-1.5-.762.567.193.259-2.575,1.917-.193-.26-.755.563Zm-.877-1.46.492-.366.189.253L432.437,514l-.189-.254.492-.366.916,1.23-.492.366-.193-.26-2.838,2.113.193.26-.491.366Z" transform="translate(-417.08 -466.457)" fill="#cdae55"/>
      <path id="Path_41" data-name="Path 41" d="M433.026,521.85l.906-.791.213.244,2.221-1.941-.213-.244.911-.8,1.151,1.318-.873,2.737.94-.821-.213-.244.912-.8,1.4,1.6-.912.8-.213-.244-2.221,1.941.213.244-.906.791-1.171-1.34.848-2.674-.9.786.213.244-.906.791Zm1.405,1.422.721-.63-.213-.244,1.338-1.169-.974,3.041,1.044,1.195.721-.63-.213-.244,2.411-2.107.213.244.715-.625-1.227-1.4-.715.625.213.244-1.378,1.2.988-3.094-1.024-1.172-.715.625.208.238-2.411,2.107-.208-.238-.721.63Zm-.983-1.393.461-.4.208.238,2.665-2.329-.208-.238.461-.4.816.935-1.167,3.67,2.019-1.764-.218-.25.461-.4,1.014,1.16-.462.4-.218-.25-2.665,2.329.218.249-.461.4-.847-.969,1.152-3.6-1.973,1.724.213.244-.461.4Z" transform="translate(-419.956 -469.861)" fill="#cdae55"/>
      <path id="Path_42" data-name="Path 42" d="M444.356,533.788l.82-.879.237.221,2.012-2.156-.237-.221.826-.885,2.9,2.7-.972,1.042-.885-.825.147-.157-.693-.646-.591.633.158.147.141-.151.89.831L448,534.63l-.89-.831.141-.151-.158-.147-.6.638.693.647.151-.163.884.825-.972,1.041Zm2.888,2.518.794-.851-.7-.652-.147.157-.879-.82.774-.829.349.326-.146.157.7.652.93-1-.7-.652-.147.157-.349-.326.773-.829.879.82-.146.157.7.652.794-.851-2.7-2.523-.648.695.231.216L445.42,533.3l-.231-.216-.648.695Zm-2.465-2.531.418-.448.231.215,2.415-2.587-.231-.216.418-.448,2.461,2.3-.564.6-.456-.426.146-.156-1.121-1.046-1,1.07.591.552.146-.157.451.421-.711.762-.451-.42.147-.157-.592-.552-1,1.07L447.2,535.2l.146-.156.456.426-.565.6Z" transform="translate(-427.153 -477.195)" fill="#cdae55"/>
    </g>
    <g id="Group_9" data-name="Group 9" transform="translate(461.488 306.096)">
      <g id="Group_8" data-name="Group 8" transform="translate(0)">
        <path id="Path_43" data-name="Path 43" d="M605.842,587.664l-.168-1.075.289-.045-.412-2.636-.289.045-.169-1.082,1.563-.244,1.673,1.99-.175-1.117-.289.045-.169-1.082,1.9-.3.169,1.082-.289.045.413,2.636.289-.046.167,1.076-1.59.248-1.637-1.939.167,1.068.289-.045.169,1.075Zm1.767-.388-.133-.856-.29.046-.248-1.589,1.856,2.214,1.419-.221-.133-.857-.289.046-.448-2.862.289-.046-.133-.849-1.667.261.133.849.289-.045.256,1.636-1.89-2.25-1.391.218.133.848.283-.044.447,2.862-.282.044.134.856Zm-1.54.08-.086-.548.282-.044-.495-3.164-.282.044-.086-.547,1.109-.173,2.245,2.665-.375-2.4-.3.047-.085-.547,1.377-.216.086.547-.3.047.494,3.164.3-.046.086.548-1.15.18L606.7,584.3l.366,2.342.289-.045.086.548Z" transform="translate(-605.092 -535.905)" fill="#cdae55"/>
        <path id="Path_44" data-name="Path 44" d="M619.606,584.672l-.784-3.2.574-.94,2.085-.51.943.568.784,3.2-.575.94-2.085.51Zm.953.438,2.011-.492.513-.839-.762-3.117-.859-.518-2,.489-.512.839.765,3.13Zm-.721-.63-.721-2.949.472-.771,1.835-.449.774.468.722,2.949-.472.771-1.835.449Zm1.09-.181.934-.228.221-.36-.618-2.525-.37-.224-.928.227-.221.361.619,2.531Zm-.241-.341-.576-2.356.179-.294.759-.185.294.177.576,2.357-.179.293-.758.186Zm.3.055.69-.169.113-.185-.561-2.3-.185-.112-.7.171-.113.185.56,2.289Z" transform="translate(-613.814 -534.541)" fill="#cdae55"/>
        <path id="Path_45" data-name="Path 45" d="M635.377,580.671l-.366-1.025.275-.1-.9-2.512-.276.1-.368-1.031,2.842-1.016,1,.468.42,1.175-.2.4.41.193.374,1.044.275-.1.367,1.024-1.536.549-.613-1.716-.194-.085-.637.227.3.828.275-.1.367,1.024Zm1.66-.719-.29-.809-.275.1L636.1,578.2l.8-.286.276.13.59,1.651,1.307-.467-.29-.809-.269.1-.395-1.1-.474-.228.222-.476-.38-1.064-.907-.426-2.685.96.29.809.269-.1.975,2.728-.269.1.29.809Zm-1.5.373-.187-.522.269-.1-1.078-3.015-.269.1-.187-.522,2.468-.882.812.387.329.92-.264.566.563.27.422,1.181.276-.1.187.522-1.031.369-.56-1.566-.383-.18-1,.357.474,1.324.275-.1.187.522Zm1.175-3.092.186-.39-.217-.607-.38-.172-1,.356.418,1.168Zm-.9.162-.315-.882.768-.274.32.15.149.418-.154.313Zm.7-.376.1-.2-.131-.366-.2-.1-.63.225.236.659Z" transform="translate(-623.293 -531.408)" fill="#cdae55"/>
        <path id="Path_46" data-name="Path 46" d="M646.9,575.775l-.435-1,.268-.117-1.066-2.446-.269.117-.438-1,3.285-1.432.515,1.182-1,.437-.078-.178-.786.342.313.718.179-.078-.074-.171,1.01-.441.587,1.347-1.009.44-.074-.172-.18.078.316.724.786-.343-.08-.184,1-.438.515,1.182Zm3.129-1.493-.421-.966-.792.345.077.178-1,.434-.41-.94.4-.173.077.178.793-.345-.494-1.131-.792.346.078.178-.4.173-.41-.94,1-.435.077.178.793-.345-.421-.966-3.067,1.337.344.788.262-.115,1.158,2.656-.262.114.343.787Zm-2.988,1.136-.221-.508.262-.114-1.28-2.935-.262.115-.222-.508,2.792-1.218.3.686-.518.226-.078-.178-1.271.554.529,1.214.672-.293-.078-.178.511-.223.377.864-.511.223-.077-.178-.671.292.529,1.214,1.271-.554-.078-.178.518-.226.3.686Z" transform="translate(-630.416 -528.11)" fill="#cdae55"/>
        <path id="Path_47" data-name="Path 47" d="M656.228,563.679l-.548-.948,1.763-1.018.547.948-.169.1,1.281,1.132-.352-1.669-.139.08-.548-.949,1.9-1.094.547.949-.139.08,1.266,1.118-.336-1.655-.145.084-.547-.949,1.733-1,.548.948-.333.192.562,2.757.139-.08.544.942-2.161,1.248-.544-.943.139-.08-.889-.758.213,1.149.139-.081.544.943-2.161,1.248-.545-.942.139-.08-2.107-1.865Zm.327-.325,2.312,2.011-.175.1.43.744,1.956-1.129-.43-.745-.157.091-.269-1.525,1.187,1-.157.091.43.744,1.956-1.13-.43-.744-.175.1-.585-3.007.278-.161-.43-.745-1.527.882.43.744.163-.094.43,2.1-1.607-1.417.157-.09-.429-.745-1.684.972.43.745.163-.094.424,2.1-1.6-1.421.193-.111-.43-.745-1.563.9.43.744Zm-.227-.045-.277-.48,1.3-.75.277.48-.266.154,2.156,1.908-.569-2.825-.241.139-.277-.48,1.431-.826.276.48-.235.136,2.162,1.9-.575-2.821-.235.136-.277-.48,1.268-.732.277.48-.29.167.671,3.31.254-.146.277.48-1.7.98-.277-.481.236-.136-1.821-1.605.48,2.38.241-.139.278.48-1.7.983-.277-.48.254-.146-2.53-2.236Z" transform="translate(-637.227 -521.116)" fill="#cdae55"/>
        <path id="Path_48" data-name="Path 48" d="M676.476,560.087l-.631-.886.239-.17-.822-2.691-.176.125-.635-.892,2.112-1.5.635.892-.2.141,2.275,1.656.233-.166.632.886-1.522,1.084-.631-.886.136-.1-.2-.141-.76.542.064.235.136-.1L678,559Zm1.357-1.111-.5-.7-.147.1-.171-.432.932-.663.347.306-.147.105.5.7,1.334-.951-.5-.7-.227.162-2.442-1.817.222-.158-.5-.7-1.919,1.367.5.7.193-.138.92,2.9-.221.158.5.7Zm-1.292.734-.321-.451.171-.122-.99-3.227-.25.178-.321-.452,1.675-1.194.322.452-.279.2,2.727,1.989.17-.121.322.452-1.084.772-.322-.451.216-.154-.642-.469-1.085.773.234.76.216-.154.322.452Zm1.045-2.846-1.342-.984.48,1.6Zm-.751.364-.314-.959.8.615Zm.3-.368-.4-.285.139.471Z" transform="translate(-649.151 -518.056)" fill="#cdae55"/>
        <path id="Path_49" data-name="Path 49" d="M685.778,552.628l-.7-.83.224-.189-1.725-2.035-.223.189-.708-.835,2.3-1.952,1.1.087.807.952-.043.446.45.036.717.846.224-.19.7.83-1.244,1.055-1.179-1.39-.211-.012-.515.437.569.672.223-.189.7.83Zm1.3-1.258-.556-.655-.224.189-.717-.846.649-.55.3.024,1.134,1.338,1.058-.9-.555-.656-.218.185-.757-.893-.524-.047.04-.524-.731-.862-1-.08-2.175,1.844.556.655.219-.185,1.873,2.21-.218.185.556.656Zm-1.269.876-.359-.423.218-.185L683.6,549.2l-.218.185-.359-.423,2-1.695.9.076.631.746-.048.622.622.054.811.957.224-.189.358.423-.835.708-1.075-1.269-.422-.034-.808.685.909,1.073.223-.189.359.422Zm.011-3.308.037-.431-.417-.492-.417-.028-.809.685.8.946Zm-.79.47-.605-.714.623-.527.353.028.287.339-.035.347Zm.525-.6.023-.22-.251-.3-.225-.018-.511.433.453.534Z" transform="translate(-654.354 -513.55)" fill="#cdae55"/>
        <path id="Path_50" data-name="Path 50" d="M694.9,544.56l-.766-.772.208-.206-1.879-1.894-.208.206-.771-.777,2.143-2.125h1.1l2.323,2.343-.007,1.1Zm2.025-2.175.007-1-2.255-2.273h-1l-2.024,2.008.606.61.2-.2,2.04,2.057-.2.2.606.609Zm-2.023,1.791-.391-.393.2-.2-2.255-2.273-.2.2-.39-.394,1.856-1.841h.9l2.138,2.155-.007.9Zm1.139-1.91,0-.423-1.835-1.85h-.422l-.753.746,2.255,2.273Zm-.756.535-2.04-2.057.594-.589h.325l1.7,1.717,0,.354Zm.482-.634v-.227l-1.66-1.673h-.216l-.48.476,1.879,1.895Z" transform="translate(-659.971 -508.478)" fill="#cdae55"/>
        <path id="Path_51" data-name="Path 51" d="M703.682,523.57l-.878-.654,1.216-1.632.878.655-.117.156,1.625.533-.984-1.394-.095.129-.879-.654,1.308-1.755.879.655-.1.129,1.6.527-.962-1.388-.1.134-.878-.654,1.2-1.6.878.655-.229.307,1.606,2.31.1-.129.872.65-1.492,2-.872-.651.1-.128-1.117-.346.65.972.1-.129.873.65-1.492,2-.872-.65.1-.129-2.672-.88Zm.172-.428,2.919.933-.121.162.689.514,1.35-1.811-.689-.514-.108.145-.85-1.295,1.483.445-.109.145.689.514,1.35-1.811-.689-.514-.121.162-1.727-2.531.192-.257-.688-.514-1.055,1.414.689.513.112-.151,1.224,1.757-2.036-.667.109-.145-.689-.514-1.162,1.559.689.513.112-.151,1.22,1.762-2.033-.672.134-.179-.689-.514-1.079,1.447.689.514Zm-.226.048-.445-.331.9-1.2.445.331-.183.247,2.735.9-1.639-2.37-.167.223-.444-.331.987-1.324.445.331-.163.219,2.739.894-1.643-2.364-.163.217-.445-.331.875-1.174.444.332-.2.268,1.925,2.775.175-.235.445.331-1.171,1.57-.445-.332.163-.217-2.307-.755,1.382,2,.167-.224.445.332-1.175,1.575-.445-.331.175-.235-3.208-1.053Z" transform="translate(-667.162 -494.351)" fill="#cdae55"/>
        <path id="Path_52" data-name="Path 52" d="M720.047,515.052l-.93-.564.151-.251-2.281-1.384-.152.25-.937-.567,1-1.645.936.568-.152.251,2.282,1.384.152-.251.93.564Zm.835-1.6-.729-.442-.155.256-2.483-1.505.155-.256-.735-.446-.875,1.443.735.445.152-.25,2.483,1.506-.152.251.729.442Zm-.925,1.233-.474-.287.148-.244-2.738-1.66-.148.244-.474-.287.719-1.186.474.288-.152.25,2.738,1.66.152-.251.474.287Z" transform="translate(-675.48 -490.628)" fill="#cdae55"/>
        <path id="Path_53" data-name="Path 53" d="M720.38,504.471l-1.219-.645,1.926-3.642,1.219.644-.514.974-.251-.132-.133.252,2.359,1.247.133-.252.962.508-.9,1.7-.962-.508.137-.259-2.359-1.247-.137.259.251.132Zm.358-.915-.257-.135.248-.469,2.561,1.354-.137.259.76.4.792-1.5-.759-.4-.137.259-2.561-1.354.248-.468.257.136.4-.758-1.017-.538-1.814,3.432,1.017.538Zm-.464.552-.747-.4,1.675-3.167.747.4-.264.5-.258-.136-.384.727,2.831,1.5.134-.253.49.259-.648,1.227-.491-.259.137-.259-2.831-1.5-.391.739.257.136Z" transform="translate(-677.553 -483.827)" fill="#cdae55"/>
        <path id="Path_54" data-name="Path 54" d="M729.146,494.913l-1-.437.118-.268-2.444-1.071-.117.268-1-.44.772-1.762,1,.44-.117.268.61.267.383-.875-.609-.267-.12.275-1-.439.774-1.768,1,.439-.115.261,2.445,1.071.115-.262,1,.437-.774,1.768-1-.436.12-.275-.743-.325-.383.875.743.325.117-.268,1,.437Zm.616-1.7-.788-.344-.117.268-.952-.417.478-1.092.952.417-.117.268.787.345.68-1.551-.787-.345-.12.274-2.654-1.162.12-.274-.788-.345-.68,1.552.788.345.117-.268.826.361-.479,1.092-.825-.361.118-.268-.788-.345-.677,1.545.787.345.115-.262,2.653,1.163-.115.262.787.345Zm-.755,1.343-.508-.222.115-.261-2.932-1.285-.115.262-.508-.223.557-1.271.507.223-.117.268,1.1.481.6-1.36-1.1-.481-.117.268-.508-.223.56-1.277.508.223-.117.268,2.933,1.285.117-.268.508.222-.559,1.277-.508-.223.117-.268-1.232-.539-.6,1.36,1.231.539.118-.268.507.222Z" transform="translate(-681.072 -476.788)" fill="#cdae55"/>
        <path id="Path_55" data-name="Path 55" d="M733.8,484.442l-3.1-1.131-.461-1,.737-2.017,1-.467,3.1,1.132.461,1-.737,2.017Zm.894-.549.711-1.945-.412-.893-3.014-1.1-.908.425-.706,1.931.412.893,3.027,1.105Zm-.925.248-2.851-1.041-.379-.821.648-1.774.818-.384,2.851,1.041.379.821-.648,1.775Zm.456-1.006.33-.9-.177-.384-2.441-.891-.392.184-.327.9.177.383,2.447.894Zm-.417.011-2.279-.833-.144-.312.267-.733.312-.146,2.278.832.144.313-.268.733Zm.213-.219.244-.668-.09-.2-2.22-.811-.2.092-.246.674.091.2,2.213.808Z" transform="translate(-684.588 -470.895)" fill="#cdae55"/>
        <path id="Path_56" data-name="Path 56" d="M734.218,471.785l-1.05-.31.545-1.845,1.05.31-.084.281,2.413.713.19-.1.2-.689-.1-.19-2.413-.713-.083.281-1.05-.31.548-1.853,1.05.311-.085.287,2.858.846.525.962-.609,2.059-.966.529L734.3,471.5Zm0-.421,2.944.87.853-.468.6-2.019-.457-.847-2.951-.873.081-.274-.824-.243-.478,1.618.824.243.085-.287,2.546.752.161.31-.217.736-.31.17-2.539-.75.083-.281-.824-.244-.479,1.618.824.244Zm-.184.084-.532-.157.393-1.331.532.157-.083.281,2.785.824.371-.2.27-.916-.205-.381-2.778-.821-.083.281-.532-.156.393-1.331.532.158-.083.28,2.991.884.429.8-.533,1.8-.8.439-2.984-.882Z" transform="translate(-686.45 -462.973)" fill="#cdae55"/>
        <path id="Path_57" data-name="Path 57" d="M738.117,459.665l-1.344-.308.922-4.016,1.345.309-.247,1.074-.277-.063-.064.278,2.6.6.064-.278,1.06.243-.43,1.875-1.061-.243.066-.286-2.6-.6-.066.286.277.063Zm.11-.975-.284-.065.119-.517,2.823.649-.066.285.838.193.379-1.652-.837-.192-.066.285-2.824-.648.119-.517.284.065.192-.836-1.121-.258-.869,3.784,1.121.258Zm-.306.652-.824-.189.8-3.492.824.189-.127.55-.283-.065-.184.8,3.121.717.064-.279.541.124-.31,1.352-.541-.124.066-.286-3.121-.717-.187.815.284.065Z" transform="translate(-688.74 -455.341)" fill="#cdae55"/>
      </g>
    </g>
    <g id="Group_11" data-name="Group 11" transform="translate(510.244 279.783)">
      <g id="Group_10" data-name="Group 10">
        <path id="Path_58" data-name="Path 58" d="M745.111,442.269l-1.063-.232.063-.286-2.607-.569-.062.286-1.07-.234.764-3.5,1.26.275-.234,1.07-.189-.041-.183.838.765.167.042-.191-.183-.04.235-1.076,1.435.313-.235,1.076-.183-.04-.042.19.772.169.183-.838-.2-.043.233-1.069,1.26.275Zm.624-3.41-1.029-.225-.184.845.19.041-.232,1.063-1-.219.092-.422.189.041.184-.844-1.205-.263-.184.845.19.041-.092.422-1-.219.232-1.063.189.042.184-.845-1.029-.225-.714,3.269.84.183.061-.279,2.83.618-.061.279.84.183Zm-.83,3.087-.542-.118.061-.279-3.128-.683-.061.279-.542-.118.65-2.976.731.159-.12.552-.19-.042-.3,1.355,1.293.283.156-.715-.19-.041.119-.545.921.2-.119.545-.19-.041-.156.715,1.293.282.3-1.355-.19-.042.12-.551.731.159Z" transform="translate(-739.782 -417.843)" fill="#cdae55"/>
        <path id="Path_59" data-name="Path 59" d="M747.3,432.088l-1.079-.142.038-.29-2.646-.347-.038.29-1.086-.142.467-3.553,1.278.168-.142,1.085-.193-.025-.112.85.777.1.025-.194-.185-.024.143-1.092,1.457.192-.144,1.092-.185-.025-.026.194.784.1.073-.56,1.079.141Zm.154-2.075-.852-.112-.073.56-1.01-.133.056-.428.193.025.112-.857-1.23-.162-.112.857.192.025-.056.429-1.017-.134.141-1.078.193.025.112-.857-1.044-.137-.435,3.317.852.112.037-.283,2.872.377-.038.283.852.112Zm-.386,1.77-.55-.072.037-.283-3.175-.417-.038.283-.55-.072.4-3.02.742.1-.073.56-.192-.025-.181,1.376,1.312.172.1-.726-.192-.025.073-.553.934.123-.073.553-.192-.026-.1.726,1.312.172.073-.553.55.072Z" transform="translate(-741.128 -411.599)" fill="#cdae55"/>
        <path id="Path_60" data-name="Path 60" d="M748.654,421.669l-1.087-.049.013-.292-2.665-.121-.013.292-1.094-.05.162-3.579,1.288.058-.05,1.094-.194-.009-.039.857.782.035.009-.195-.187-.008.05-1.1,1.468.067-.05,1.1-.186-.008-.009.195.789.036.026-.564,1.087.049Zm-.024-2.081-.858-.039-.026.564-1.018-.046.02-.432.194.008.039-.863-1.24-.057-.039.863.194.009-.02.432-1.025-.046.05-1.086.194.009.039-.864-1.052-.048-.152,3.343.858.039.013-.285,2.894.132-.013.285.858.039Zm-.234,1.8-.554-.025.013-.286-3.2-.145-.013.286-.554-.025.138-3.043.748.034-.026.564-.194-.009-.063,1.386,1.322.06.033-.731-.194-.008.025-.557.941.043-.025.557-.194-.009-.033.731,1.322.06.025-.557.554.025Z" transform="translate(-741.965 -405.225)" fill="#cdae55"/>
        <path id="Path_61" data-name="Path 61" d="M748.089,410.032l-3.3.165-.814-.741-.107-2.144.736-.819,3.295-.165.814.741.107,2.144Zm.609-.854-.1-2.068-.727-.662-3.2.16-.671.746.1,2.054.727.662,3.218-.161Zm-.755.589-3.032.152-.669-.609-.094-1.887.6-.673,3.032-.151.669.609.094,1.887Zm.028-1.1-.048-.961-.313-.285-2.6.13-.289.322.048.954.312.285,2.6-.13Zm-.38.173-2.422.121-.255-.232-.039-.78.23-.256,2.423-.121.254.231.039.78Zm.111-.285-.036-.71-.16-.146-2.36.118-.144.161.036.717.16.146,2.353-.117Z" transform="translate(-742.006 -397.893)" fill="#cdae55"/>
        <path id="Path_62" data-name="Path 62" d="M747.712,397.314l-1.074.175-.047-.289-2.633.429.047.289-1.08.176-.485-2.979.641-.9,1.231-.2.359.266.263-.368,1.095-.178-.047-.289,1.074-.175.262,1.61-1.8.293-.119.175.109.667.868-.141-.047-.289,1.074-.175Zm-.407-1.763-.848.138.047.289-1.095.178-.137-.839.177-.248,1.73-.282-.223-1.369-.848.138.046.282-1.156.188-.31.425-.429-.3-1.115.182-.584.815.458,2.814.848-.138-.046-.282,2.859-.465.046.282.848-.138Zm.1,1.538-.547.089-.046-.282-3.16.515.046.282-.547.089-.421-2.587.528-.728.964-.157.509.362.367-.5,1.238-.2-.047-.289.547-.089.176,1.08-1.642.267-.246.344.17,1.046,1.389-.226-.047-.289.547-.089Zm-2.828-1.715-.351-.253-.636.1-.239.343.17,1.046,1.225-.2Zm-.005.919-.923.15-.131-.805.206-.288.438-.071.28.209Zm-.243-.759-.176-.134-.383.062-.131.184.108.66.69-.112Z" transform="translate(-741.095 -389.601)" fill="#cdae55"/>
        <path id="Path_63" data-name="Path 63" d="M741.239,387.157l-1.323.388-1.16-3.953,1.323-.388.31,1.057-.273.08.081.274,2.561-.751-.081-.274,1.044-.306.542,1.846-1.044.306-.082-.281-2.56.751.082.281.273-.08Zm-.381-.9-.279.082-.149-.508,2.78-.816.082.281.825-.242-.477-1.625-.825.242.082.281-2.78.816-.149-.509.279-.082-.242-.823-1.1.324L740,387.4l1.1-.324Zm.051.718-.811.238-1.009-3.438.811-.238.159.542-.279.082.232.789,3.073-.9-.081-.274.532-.156.391,1.331-.532.156-.082-.281-3.072.9.236.8.279-.082Z" transform="translate(-738.756 -383.204)" fill="#cdae55"/>
      </g>
    </g>
    <g id="Group_13" data-name="Group 13" transform="translate(407.632 338.602)">
      <g id="Group_12" data-name="Group 12" transform="translate(0 0)">
        <path id="Path_64" data-name="Path 64" d="M457.446,547.941l.838-.781.21.225,2.054-1.916-.21-.225.843-.787,2.167,2.323-.037,1.159-1.126,1.05-1.158-.043-1-1.068-.576.538.21.225-.838.781Zm1.387,1.3.661-.617-.21-.226.752-.7,1.056,1.132,1.039.034,1.062-.99.033-1.055-2.047-2.194-.667.622.205.22-2.23,2.08-.205-.22-.661.617Zm-.984-1.289.427-.4.205.22,2.464-2.3-.205-.22.427-.4,1.877,2.012-.03.951-.922.861-.957-.031-1.091-1.169-.982.916.21.225-.426.4Zm3.382-.065.455.017.587-.548.014-.445-.761-.815-1.051.98Zm-.534-.807.816-.761.591.634-.012.362-.437.408-.367-.009Zm.661.527.227.009.4-.374.007-.227-.486-.521-.635.592Z" transform="translate(-457.446 -544.457)" fill="#cdae55"/>
        <path id="Path_65" data-name="Path 65" d="M470.411,553.708l.724-.9,1.575,1.273-.725.9-.24-.194-1.665,2.059.025.226.588.475.227-.023,1.665-2.059-.24-.194.724-.9,1.581,1.278-.725.9-.246-.2-1.972,2.44-1.147.124-1.757-1.421-.125-1.152,1.972-2.44Zm.409.171-2.031,2.513.111,1.018,1.723,1.393,1.009-.1,2.036-2.519.234.189.568-.7-1.381-1.117-.569.7.245.2-1.756,2.173-.366.032-.627-.508-.04-.37,1.752-2.167.24.194.569-.7-1.381-1.117-.569.7Zm-.007-.212.367-.454,1.135.918-.367.454-.24-.194-1.922,2.377.048.442.782.633.453-.047,1.918-2.371-.24-.194.367-.454,1.136.918-.367.454-.24-.194-2.064,2.553-.947.1-1.541-1.245-.1-.957,2.059-2.548Z" transform="translate(-464.581 -549.764)" fill="#cdae55"/>
        <path id="Path_66" data-name="Path 66" d="M478.424,565.421l.6-.974.262.162,1.48-2.386-.262-.163.607-.98,1.721,1.068-.607.979-.262-.162-1.48,2.387.785.487.162-.26.985.611-.765,1.234Zm3.19,1.832.63-1.017-.773-.48-.158.255-1-.623,1.611-2.6.268.166.477-.769-1.509-.936-.477.769.262.163-1.607,2.591-.256-.159-.477.769Zm-2.8-1.923.308-.5.255.159,1.776-2.864-.256-.158.307-.5,1.241.77-.307.5-.262-.162-1.776,2.864,1.26.782.162-.261.505.313-.469.756Z" transform="translate(-470.772 -555.017)" fill="#cdae55"/>
        <path id="Path_67" data-name="Path 67" d="M491,567.176l.507-1.035,1.858.912-.507,1.035-.158-.078-.235,1.779,1.262-1.274-.151-.075.508-1.035,1.9.935-.507,1.035-.409-.2-2.08,2.108.237.116-.5,1.028-2.457-1.206.5-1.028.2.1.394-2.935Zm.456.086-.407,3.2-.218-.107-.4.812,2.233,1.1.4-.812-.257-.126,2.285-2.275.336.165.4-.812-1.687-.827-.4.812.171.084L492.362,570l.267-2.161.171.084.4-.812-1.634-.8-.4.812Zm-.074-.215.257-.524,1.35.662-.257.524-.257-.126-.406,3.01,2.139-2.161-.25-.123.257-.524,1.4.685-.257.524-.336-.165-2.5,2.528.329.162-.257.524-1.95-.957.257-.524.3.145.47-3.523Z" transform="translate(-478.295 -558.231)" fill="#cdae55"/>
        <path id="Path_68" data-name="Path 68" d="M501.894,577.222l.4-1.073.289.108.979-2.633-.289-.108.4-1.08,3.535,1.315-.473,1.272-1.08-.4.071-.192-.846-.314-.288.772.193.072.069-.185,1.087.4-.539,1.449-1.086-.4.069-.185-.193-.072-.29.78.846.314.074-.2,1.08.4-.473,1.271Zm3.461,1.156.387-1.04-.853-.317-.071.192-1.073-.4.376-1.012.427.158-.071.192.853.317.453-1.217-.852-.317-.071.192-.426-.159.376-1.012,1.073.4-.071.192.853.317.387-1.039-3.3-1.229-.316.848.282.1-1.063,2.858-.282-.1-.316.848Zm-3.094-1.323.2-.547.282.1,1.176-3.159-.282-.105.2-.547,3.005,1.119-.275.739-.557-.208.071-.191-1.368-.51-.486,1.306.722.268.071-.191.55.2-.346.929-.55-.2.071-.192-.722-.268-.486,1.306,1.368.51.072-.192.557.208-.275.738Z" transform="translate(-485.681 -562.23)" fill="#cdae55"/>
        <path id="Path_69" data-name="Path 69" d="M513.344,581.2l.307-1.1.3.083.755-2.705-.3-.083.31-1.11,3.06.854.572,1.008L518,579.408l-.414.225.235.414-.314,1.125.3.083-.308,1.1-1.654-.461.515-1.848-.114-.191-.686-.191-.249.892.3.083-.308,1.1Zm1.864.391.243-.872-.3-.082.314-1.124.862.24.158.279-.5,1.778,1.407.393.243-.871-.29-.081.331-1.188-.269-.484.481-.275.32-1.145-.521-.918-2.891-.807-.243.871.29.081-.819,2.937-.29-.081-.243.871ZM513.7,581l.157-.562.29.08.906-3.246-.29-.081.156-.562,2.657.742.463.826-.276.991-.571.325.32.575-.355,1.272.3.083-.157.562-1.11-.31.471-1.686-.22-.388-1.074-.3-.4,1.426.3.083-.157.562Zm2.889-1.943.4-.223.182-.653-.222-.38-1.074-.3-.351,1.258Zm-.876-.411.265-.949.827.231.184.324-.125.45-.323.175Zm.832.1.206-.109.11-.394-.117-.207-.678-.189-.2.709Z" transform="translate(-492.954 -564.673)" fill="#cdae55"/>
        <path id="Path_70" data-name="Path 70" d="M526.41,584.6l.227-1.122.3.061.558-2.753-.3-.061.229-1.129,3.7.749-.27,1.33-1.129-.228.041-.2-.885-.179-.163.808.2.041.039-.193,1.136.231-.307,1.515-1.137-.23.039-.193-.2-.041-.165.815.885.179.042-.207,1.129.229-.27,1.33Zm3.6.6.22-1.087-.892-.181-.04.2-1.122-.227.214-1.058.446.09-.04.2.892.181.258-1.273-.892-.181-.041.2-.446-.09.215-1.058,1.122.227-.041.2.892.181.22-1.087-3.452-.7-.18.887.3.06-.606,2.989-.295-.06-.179.886Zm-3.262-.825.116-.572.295.06.67-3.3-.295-.06.116-.572,3.143.637-.157.773-.582-.118.04-.2-1.431-.29-.277,1.365.755.153.041-.2.575.117-.2.973-.576-.117.041-.2-.755-.153-.276,1.366,1.431.29.04-.2.583.118-.156.772Z" transform="translate(-501.254 -566.78)" fill="#cdae55"/>
      </g>
    </g>
  </g>
</svg>
